<mxfile host="65bd71144e">
    <diagram id="dbDP3T94L93EcM5gTZp7" name="Page-1">
        <mxGraphModel dx="1072" dy="444" grid="1" gridSize="10" guides="1" tooltips="1" connect="1" arrows="1" fold="1" page="1" pageScale="1" pageWidth="850" pageHeight="1100" math="0" shadow="0">
            <root>
                <mxCell id="0"/>
                <mxCell id="1" parent="0"/>
                <mxCell id="4" value="User" style="swimlane;whiteSpace=wrap;html=1;" vertex="1" parent="1">
                    <mxGeometry x="80" y="80" width="200" height="400" as="geometry"/>
                </mxCell>
                <mxCell id="5" value="" style="ellipse;html=1;shape=startState;fillColor=#000000;strokeColor=#ff0000;" vertex="1" parent="4">
                    <mxGeometry x="85" y="40" width="30" height="30" as="geometry"/>
                </mxCell>
                <mxCell id="6" value="" style="edgeStyle=orthogonalEdgeStyle;html=1;verticalAlign=bottom;endArrow=open;endSize=8;strokeColor=#ff0000;entryX=0.5;entryY=0;entryDx=0;entryDy=0;" edge="1" parent="4" source="5" target="7">
                    <mxGeometry relative="1" as="geometry">
                        <mxPoint x="110" y="130" as="targetPoint"/>
                    </mxGeometry>
                </mxCell>
                <mxCell id="7" value="Pilih fitur laporan inspection" style="rounded=1;whiteSpace=wrap;html=1;" vertex="1" parent="4">
                    <mxGeometry x="40" y="110" width="120" height="60" as="geometry"/>
                </mxCell>
                <mxCell id="8" value="Pilih detail (icon settings) pada salah satu data laporan inspection" style="rounded=1;whiteSpace=wrap;html=1;" vertex="1" parent="4">
                    <mxGeometry x="40" y="210" width="120" height="60" as="geometry"/>
                </mxCell>
                <mxCell id="9" value="Sistem" style="swimlane;whiteSpace=wrap;html=1;" vertex="1" parent="1">
                    <mxGeometry x="280" y="80" width="200" height="400" as="geometry"/>
                </mxCell>
                <mxCell id="10" value="Menampilkan halaman laporan inspection" style="rounded=1;whiteSpace=wrap;html=1;" vertex="1" parent="9">
                    <mxGeometry x="40" y="110" width="120" height="60" as="geometry"/>
                </mxCell>
                <mxCell id="11" value="" style="edgeStyle=none;html=1;" edge="1" parent="9" source="12" target="13">
                    <mxGeometry relative="1" as="geometry"/>
                </mxCell>
                <mxCell id="12" value="Menampilkan halaman eksternal inspection" style="rounded=1;whiteSpace=wrap;html=1;" vertex="1" parent="9">
                    <mxGeometry x="40" y="210" width="120" height="60" as="geometry"/>
                </mxCell>
                <mxCell id="13" value="" style="ellipse;html=1;shape=endState;fillColor=#000000;strokeColor=#ff0000;" vertex="1" parent="9">
                    <mxGeometry x="85" y="310" width="30" height="30" as="geometry"/>
                </mxCell>
                <mxCell id="14" value="" style="edgeStyle=none;html=1;" edge="1" parent="1" source="7" target="10">
                    <mxGeometry relative="1" as="geometry"/>
                </mxCell>
                <mxCell id="15" value="" style="edgeStyle=none;html=1;exitX=0.5;exitY=1;exitDx=0;exitDy=0;entryX=0.5;entryY=0;entryDx=0;entryDy=0;" edge="1" parent="1" source="10" target="8">
                    <mxGeometry relative="1" as="geometry">
                        <Array as="points">
                            <mxPoint x="380" y="270"/>
                            <mxPoint x="180" y="270"/>
                        </Array>
                    </mxGeometry>
                </mxCell>
                <mxCell id="16" value="" style="edgeStyle=none;html=1;" edge="1" parent="1" source="8" target="12">
                    <mxGeometry relative="1" as="geometry"/>
                </mxCell>
            </root>
        </mxGraphModel>
    </diagram>
</mxfile>